<svg width="500" height="500" fill="none" xmlns="http://www.w3.org/2000/svg"><g clip-path="url(#a)"><path d="M75.606 169.459c12.749-1.334 26.956.965 38.91 8.35l2.803 1.733 1.399 3.03c11.023 23.928 13.562 42.997 10.305 60.029-3.255 17.03-12.1 31.239-23.935 45.863l-3.367 4.161-5.42-.085c-14.701-.23-26.78-4.303-36.42-10.824-10.3-6.968-17.67-16.642-22.395-27.362-4.577-10.383-6.648-21.808-6.476-32.657.207-13.04 3.684-25.472 9.98-34.619 6.522-9.473 19.853-16.072 34.616-17.619Zm24.469 25.453c-6.915-3.413-14.882-4.418-22.22-3.65-8.508.89-15.69 3.96-18.592 8.177-3.881 5.637-6.034 13.764-6.172 22.6-.124 7.846 1.362 16.089 4.657 23.559 3.143 7.131 7.958 13.51 14.6 18.004 5.117 3.461 11.411 5.864 18.982 6.716 7.996-10.472 13.83-20.602 15.958-31.752 2.293-11.987.492-25.862-7.213-43.654ZM421.593 191.262c-7.336-.768-15.304.237-22.22 3.65-7.702 17.792-9.506 31.667-7.213 43.654 2.134 11.15 7.965 21.28 15.959 31.752 7.572-.852 13.87-3.255 18.982-6.716 6.642-4.494 11.458-10.873 14.604-18.004 3.293-7.47 4.778-15.713 4.656-23.559-.141-8.836-2.293-16.963-6.175-22.6-2.901-4.217-10.08-7.287-18.593-8.177Zm-36.661-13.453c11.955-7.385 26.162-9.684 38.917-8.35 14.759 1.547 28.091 8.146 34.611 17.619 6.298 9.147 9.773 21.579 9.98 34.619.174 10.849-1.896 22.274-6.475 32.657-4.724 10.72-12.096 20.394-22.394 27.362-9.643 6.521-21.72 10.594-36.423 10.824l-5.42.085-3.368-4.161c-11.836-14.624-20.68-28.833-23.932-45.863-3.257-17.032-.721-36.101 10.307-60.029l1.393-3.03 2.804-1.733Z" fill="#E5E7EB"/><path d="m249.642 35.985-2.337 4.816c8.78-2.781 17.985-5.117 27.456-7.01 20.46-4.094 42.485-6.188 64.34-6.287l18.469-.082-19.568 35.849c12.311 5.273 24.577 13.739 35.532 23.632 16.522 14.922 30.428 33.43 37.067 49.132l8.663 20.502-19-5.051a184.828 184.828 0 0 1 14.317 28.868l.659 1.684.069 1.863c.447 11.731-.197 25.526-1.603 39.162-1.157 11.208-2.86 22.434-4.918 32.424 13.793 10.72 24.627 27.642 31.577 47.132 7.996 22.432 10.988 48.611 7.436 72.587l-2.504 16.92-15.195-9.934c-2.27 8.859-5.69 18.018-10.187 27.008-6.887 13.777-16.392 27.305-28.263 38.885l-10.955 10.687-11.66-24.669-8.144 11.909-2.29 1.257c-15.473 8.516-33.515 16.143-51.406 22.281-19.377 6.651-38.848 11.635-54.888 14.176l-1.712.274-1.712-.274c-16.04-2.541-35.511-7.525-54.888-14.176-17.89-6.138-35.93-13.765-51.406-22.281l-2.29-1.257-8.144-11.909-11.659 24.669-10.958-10.687c-11.867-11.58-21.374-25.108-28.263-38.885-4.495-8.99-7.915-18.149-10.186-27.008l-15.19 9.934-2.51-16.92c-3.55-23.976-.559-50.155 7.438-72.587 6.894-19.335 17.61-36.141 31.247-46.875-2.568-11.123-3.939-23.287-4.603-35.052-.795-14.093-.567-27.729-.2-38.133l.075-2.108.78-1.825c4.524-10.575 8.762-20.044 13.844-28.756l-17.346 3.392 11.323-20.48c14.176-25.642 34.491-52.63 61.538-74.144 22.105-17.583 48.692-31.503 80.087-38.079L259.344 16l-9.702 19.985Zm-34.219 20.456 3.894-8.021c-18.124 6.631-34.168 16.134-48.222 27.311-17.323 13.78-31.641 30.114-43.126 46.788l39.803-7.781-31.478 26.968c-6.2 5.312-11 11.546-15.238 18.753-4.198 7.138-7.988 15.489-12.03 24.883-.302 9.543-.439 21.605.271 34.153.736 13.012 2.399 26.449 5.79 37.742l2.448 8.153-7.37 4.367c-12.351 7.322-22.315 22.196-28.709 40.125-4.922 13.81-7.639 29.247-7.667 44.425l14.58-9.53 1.542 18.289c.936 11.099 4.682 23.828 10.964 36.391a126.807 126.807 0 0 0 13.429 21.275l14.382-30.423 26.702 39.048c13.771 7.364 29.742 14.033 45.715 19.514 17.7 6.076 35.167 10.632 49.494 13.038 14.327-2.406 31.794-6.962 49.494-13.038 15.973-5.481 31.947-12.15 45.715-19.514l26.702-39.048 14.381 30.423a126.622 126.622 0 0 0 13.43-21.275c6.283-12.563 10.029-25.292 10.963-36.391l1.545-18.289 14.576 9.53c-.025-15.178-2.742-30.615-7.667-44.425-5.972-16.752-15.063-30.837-26.308-38.585h-10.753l3.24-13.462c2.552-10.593 4.676-23.701 6.052-36.995 1.242-12.018 1.849-24.038 1.578-34.306-3.668-9.098-8.11-17.698-12.735-25.074-4.965-7.916-10.073-14.336-14.559-18.295l-24.61-21.701 32.697 2.645c1.505.122 2.899.252 4.215.391-5.538-7.379-12.271-14.776-19.655-21.443-12.415-11.213-26.384-20.112-39.077-22.927l-14.174-3.141 14.778-27.07c-14.028.872-27.999 2.643-41.386 5.323-18.157 3.632-34.951 8.879-48.981 15.727l-28.427 13.879 13.792-28.407Z" fill="#E5E7EB"/><path fill-rule="evenodd" clip-rule="evenodd" d="m224.446 59.873 14.505-29.955C173.06 43.755 129.48 92.31 104.966 136.761l23.606-4.628c-14.366 12.344-22.017 28.6-30.942 49.508-.71 20.257-.891 53.134 6.405 77.491-29.713 17.658-46.772 69.51-40.3 113.314l14.75-9.664c2.02 23.977 15.42 54.176 38.079 76.335l13.236-28.074 17.398 25.503c30.983 17.1 73.146 30.605 102.527 35.276 29.383-4.671 71.543-18.176 102.527-35.276l17.397-25.503 13.235 28.074c22.661-22.159 36.06-52.358 38.08-76.335l14.751 9.664c6.471-43.804-10.585-95.656-40.302-113.314h-.062c5.247-21.857 8.714-53.292 7.852-76.106-8.232-21.138-20.64-40.274-30.85-49.3 11.087.9 15.917 2.309 27.003 5.264-11.415-27.074-47.111-63.897-78.203-70.807l16.933-31.102c-40.962.183-82.944 7.768-113.64 22.792Z" fill="#1F2937"/><path fill-rule="evenodd" clip-rule="evenodd" d="M252.339 470.082c29.273-5.006 65.372-17.794 95.563-34.467l22.81-33.759 13.961 29.428c21.582-23.159 28.655-54.362 32.114-77.122l14.762 9.684c2.469-27.459-10.081-75.983-42.857-100.849 5.251-21.896 9.939-55.17 9.072-78.025-8.235-21.176-25.879-44.984-36.097-54.028 10.5-.642 18.304-.543 29.398 2.416-11.424-27.121-46.079-54.252-77.198-61.175l16.829-30.088c-18.103 12.537-35.432 24.412-49.421 39.168 33.932 2.212 59.123 9.3 78.487 32.923-15.063-.144-22.596 2.653-35.84 6.833 40.882 33.49 62.327 72.583 57.178 124.855-2.147 21.79-10.544 29.902-23.955 37.852 27.075 49.282-24.489 154.709-104.806 186.354Z" fill="#111827"/><path fill-rule="evenodd" clip-rule="evenodd" d="M97.215 290.885c-11.904 14.303-19.153 32.992-22.644 55.019L93 334.346c-1.493 27.271 3.241 43.522 14.44 67.884-4.965-34.208-5.517-57.408 1.986-86.192l-17.367 6.236c.534-10.497 3.465-20.999 5.155-31.389ZM196.41 71.447l-10.011 25.652c23.453-12.313 65.85-30 97.118-32.385-17.357 12.062-31.367 27.734-42.002 41.767 32.349-11.37 82.216-12.01 101.452 2.841-32.646.512-56.606 8.632-83.326 31.456 2.372-7.208 6.172-16.475 8.547-23.682-23.423 2.829-55.686 10.887-77.919 20.431l17.593-29.266c-22.091 4.936-41.249 14.78-63.578 33.003 8.574-36.567 29.372-59.457 52.126-69.818Z" fill="#374151"/><path fill-rule="evenodd" clip-rule="evenodd" d="m224.446 59.873 14.504-29.955C173.06 43.755 129.48 92.31 104.966 136.761l23.606-4.628c-14.366 12.344-22.017 28.6-30.941 49.508-.71 20.257-.892 53.134 6.403 77.491-29.712 17.658-46.77 69.51-40.298 113.314l14.75-9.664c2.018 23.977 15.42 54.176 38.078 76.335l13.236-28.074 17.397 25.503c30.984 17.1 73.147 30.605 102.528 35.276 29.383-4.671 71.543-18.176 102.527-35.276l17.397-25.503 13.235 28.074c22.661-22.159 36.06-52.358 38.08-76.335l14.751 9.664c6.471-43.804-10.585-95.656-40.302-113.314h-.062c5.247-21.857 8.714-53.292 7.852-76.106-8.232-21.138-20.64-40.274-30.85-49.3 11.087.9 15.917 2.309 27.003 5.264-11.415-27.074-47.111-63.897-78.203-70.807l16.933-31.102c-40.962.183-82.943 7.768-113.64 22.792Z" fill="#1F2937"/><path fill-rule="evenodd" clip-rule="evenodd" d="M252.339 470.082c29.273-5.006 65.372-17.794 95.563-34.467l22.81-33.759 13.961 29.428c21.583-23.159 28.655-54.362 32.114-77.122l14.762 9.684c2.469-27.459-10.081-75.983-42.857-100.849 5.251-21.896 9.939-55.17 9.073-78.025-8.236-21.176-25.88-44.984-36.098-54.028 10.5-.642 18.304-.543 29.398 2.416-11.424-27.121-46.079-54.252-77.198-61.175l16.829-30.088c-18.103 12.537-35.432 24.412-49.421 39.168 33.932 2.212 59.123 9.3 78.486 32.923-15.062-.144-22.595 2.653-35.839 6.833 40.883 33.49 62.327 72.583 57.179 124.855-2.148 21.79-10.545 29.902-23.956 37.852 27.075 49.282-24.489 154.709-104.806 186.354Z" fill="#111827"/><path fill-rule="evenodd" clip-rule="evenodd" d="M97.215 290.885c-11.904 14.303-19.153 32.992-22.644 55.019L93 334.346c-1.493 27.271 3.241 43.522 14.44 67.884-4.965-34.208-5.517-57.408 1.986-86.192l-17.367 6.236c.534-10.497 3.465-20.999 5.155-31.389ZM196.41 71.447l-10.011 25.652c23.453-12.313 65.85-30 97.118-32.385-17.357 12.062-31.367 27.734-42.002 41.767 32.349-11.37 82.216-12.01 101.452 2.841-32.646.512-56.606 8.632-83.326 31.456 2.372-7.208 6.172-16.475 8.547-23.682-23.423 2.829-55.686 10.887-77.919 20.431l17.593-29.266c-22.091 4.936-41.249 14.78-63.578 33.003 8.574-36.567 29.372-59.457 52.126-69.818Z" fill="#374151"/><path d="M212.466 166.256c14.007 4.507 27.22 11.599 37.258 21.076 10.042-9.477 23.252-16.569 37.259-21.076 19.785-6.364 41.573-7.669 58.332-3.279l1.949.511 1.567 1.145c15.551 11.364 23.544 24.791 26.977 39.828 3.243 14.2 2.168 29.379-.379 45.462-1.105 6.849-6.836 13.178-14.089 18.555-4.64 3.438-10.1 6.695-15.082 9.373 5.94 8.566 11.113 17.84 15.503 27.621 6.391 14.235 11.099 29.52 14.097 45.232l.457 2.404-.66 2.318c-4.046 14.176-9.673 26.197-16.856 37.762-6.907 11.119-15.326 21.822-25.228 33.731l-1.671 2.015-2.448.972c-11.595 4.622-23.902 8.465-37.016 11.408-13.18 2.959-27.142 5.028-41.984 6.099l-.728.052-.725-.052c-14.841-1.071-28.806-3.14-41.986-6.099-13.114-2.943-25.419-6.786-37.016-11.408l-2.448-.972-1.671-2.015c-9.899-11.909-18.319-22.612-25.228-33.731-7.183-11.565-12.81-23.586-16.854-37.762l-.662-2.318.46-2.404c2.995-15.712 7.703-30.997 14.094-45.232 4.392-9.781 9.562-19.055 15.505-27.621-4.984-2.678-10.444-5.935-15.083-9.373-7.251-5.377-12.985-11.706-14.083-18.557-2.554-16.081-3.627-31.26-.386-45.46 3.433-15.037 11.426-28.464 26.979-39.828l1.565-1.145 1.948-.511c16.76-4.39 38.55-3.085 58.333 3.279Zm28.86 42.579c-7.505-10.493-20.662-18.3-35.161-22.963-15.449-4.969-32.051-6.27-44.922-3.425-10.038 7.812-15.251 16.725-17.492 26.534-2.543 11.142-1.565 23.917.622 37.713v.04c.097.62 2.63 2.688 6.014 5.196 7.571 5.612 17.834 10.676 22.591 12.678l12.806 5.388-8.846 10.674c-8.187 9.88-15.004 21.112-20.431 33.199-5.394 12.009-9.455 24.903-12.165 38.206 3.424 11.217 8.041 20.888 13.833 30.213 6.061 9.759 13.349 19.149 21.85 29.442 9.838 3.785 20.317 6.973 31.51 9.485 11.849 2.658 24.548 4.545 38.189 5.561 13.644-1.016 26.341-2.903 38.19-5.561 11.195-2.512 21.672-5.7 31.513-9.485 8.5-10.293 15.786-19.683 21.847-29.442 5.792-9.325 10.409-18.996 13.833-30.213-2.708-13.303-6.771-26.197-12.164-38.206-5.427-12.087-12.245-23.319-20.429-33.199l-8.846-10.674 12.803-5.388c4.76-2.002 15.02-7.066 22.591-12.678 3.384-2.508 5.917-4.576 6.016-5.196v-.04c2.185-13.796 3.162-26.571.62-37.713-2.239-9.809-7.454-18.722-17.492-26.534-12.871-2.845-29.473-1.544-44.922 3.425-14.499 4.663-27.653 12.47-35.161 22.963l-8.399 11.743-8.398-11.743Z" fill="#111827"/><path fill-rule="evenodd" clip-rule="evenodd" d="M250.596 204.729c-18.742-26.014-64.823-37.367-93.575-29.887-26.791 19.44-27.421 45.44-22.661 75.293 1.527 9.574 26.414 22.169 34.999 25.757-17.966 21.535-29.845 49.154-35.468 78.434 7.577 26.363 21.065 44.691 40.31 67.68 22.274 8.814 47.456 14.692 76.395 16.76 28.94-2.068 54.121-7.946 76.396-16.76 19.244-22.989 32.732-41.317 40.309-67.68-5.623-29.28-17.501-56.899-35.468-78.434 8.587-3.588 33.472-16.183 34.999-25.757 4.763-29.853 4.13-55.853-22.659-75.293-28.752-7.48-74.835 3.873-93.577 29.887Z" fill="#6B7280"/><path fill-rule="evenodd" clip-rule="evenodd" d="M249.725 216.002c-12.047-7.83-27.385-15.59-43.963-19.856-21.34-5.489-15.18-2.362-5.811 7.443 19.973 20.898 19.776 45.19-.773 73.378 57.027-4.875 44.069-4.875 101.096 0-20.55-28.188-20.747-52.48-.776-73.378 9.371-9.805 15.529-12.932-5.809-7.443-16.577 4.266-31.918 12.026-43.964 19.856Z" fill="#374151"/><path d="M220.164 257.277c9.08-2.135 18.734-2.928 29.561-2.928 10.827 0 20.482.793 29.564 2.928 9.376 2.2 17.972 5.794 26.345 11.342l4.122 2.734.222 4.928c.211 4.622-.503 9.105-1.737 13.501l-.142.524c8.698 1.822 16.379 3.903 23.526 6.275 10.304 3.416 19.158 7.278 28.134 11.719l3.233 1.601 1.416 3.367c2.628 6.239 4.8 12.607 6.641 19.06 1.827 6.399 3.311 12.801 4.582 19.193l.45 2.274-.641 2.238c-4.041 14.093-9.662 26.042-16.835 37.539-6.915 11.077-15.343 21.742-25.253 33.607l-1.578 1.891-2.312.916c-11.59 4.595-23.906 8.42-37.032 11.354-13.19 2.946-27.165 5.011-42.019 6.073l-.686.052-.685-.052c-14.852-1.062-28.829-3.127-42.017-6.073-13.129-2.934-25.442-6.759-37.034-11.354l-2.31-.916-1.581-1.891c-9.909-11.865-18.338-22.53-25.253-33.607-7.173-11.497-12.793-23.446-16.835-37.539l-.64-2.238.451-2.274c1.27-6.392 2.754-12.794 4.581-19.193 1.841-6.453 4.015-12.821 6.641-19.06l1.418-3.367 3.233-1.601c8.976-4.441 17.827-8.303 28.132-11.719 7.149-2.372 14.828-4.453 23.525-6.275l-.139-.524c-1.236-4.396-1.945-8.879-1.74-13.501l.22-4.928 4.127-2.734c8.373-5.545 16.967-9.142 26.345-11.342Zm29.561 16.489c-9.463 0-17.711.646-25.139 2.393-5.368 1.26-10.397 3.12-15.268 5.757.17.879.387 1.773.638 2.675.861 3.009 2.122 6.157 3.491 9.326l4.878 11.315-12.236 2.034c-12.826 2.13-23.095 4.659-32.163 7.666-7.764 2.574-14.923 5.614-22.252 9.131a151.678 151.678 0 0 0-4.516 13.499c-1.432 5.014-2.654 10.155-3.737 15.377 3.455 11.289 8.116 21.014 13.97 30.395 6.117 9.8 13.477 19.231 22.061 29.574 9.945 3.814 20.533 7.023 31.839 9.552 11.924 2.661 24.705 4.551 38.434 5.566 13.734-1.015 26.511-2.905 38.434-5.566 11.309-2.529 21.895-5.738 31.84-9.552 8.587-10.343 15.944-19.774 22.06-29.574 5.854-9.381 10.517-19.106 13.97-30.395-1.082-5.222-2.304-10.363-3.736-15.377-1.298-4.549-2.782-9.054-4.514-13.499-7.332-3.517-14.49-6.557-22.254-9.131-9.069-3.007-19.338-5.536-32.162-7.666l-12.237-2.034 4.878-11.315c1.368-3.169 2.633-6.314 3.481-9.33.262-.898.477-1.792.648-2.671-4.869-2.637-9.901-4.497-15.268-5.757-7.428-1.747-15.677-2.393-25.14-2.393Z" fill="#111827"/><path fill-rule="evenodd" clip-rule="evenodd" d="M251.468 264.788c-20.213 0-35.666 2.856-50.341 12.535-.316 6.948 2.267 13.892 5.274 20.837-26.413 4.371-42.808 10.54-60.222 19.112-4.937 11.678-8.151 23.791-10.609 36.093 7.525 26.12 20.92 44.279 40.031 67.055 22.121 8.734 47.128 14.557 75.867 16.606 28.739-2.049 53.746-7.872 75.867-16.606 19.111-22.776 32.506-40.935 40.031-67.055-2.458-12.302-5.672-24.415-10.609-36.093-17.414-8.572-33.809-14.741-60.222-19.112 3.01-6.945 5.59-13.889 5.275-20.837-14.676-9.679-30.126-12.535-50.342-12.535Z" fill="#6B7280"/><path fill-rule="evenodd" clip-rule="evenodd" d="M220.911 294.525c33.249 27.622 24.382 27.622 57.628 0 30.972-25.731-88.599-25.731-57.628 0ZM307.436 308.282c35.935 43.29 17.698 100.941-15.011 118.305 10.027-2.422 20.052-4.84 30.079-7.255 14.422-18.742 28.146-38.384 37.891-63.17-2.896-11.423-6.056-22.739-10.899-33.367-17.182-8.607-24.1-10.344-42.06-14.513Z" fill="#374151"/><path d="M135.23 348.297c37.33 10.937 75.046 17.861 113.343 18.688 38.238.825 77.164-4.418 117.003-17.795l3.533 10.252c-41.076 13.794-81.253 19.198-120.75 18.345-39.446-.851-78.116-7.931-116.275-19.11l3.146-10.38Z" fill="#111827"/><path fill-rule="evenodd" clip-rule="evenodd" d="M224.947 288.592c6.984 4.431 14.573 7.858 20.266 14.471.363-8.979.196-17.674-1.67-25.458-5.936-1.209-11.963-.689-18.261 1.458-9.352 3.188-6.594 5.558-.335 9.529ZM276.246 288.592c-6.984 4.431-14.573 7.858-20.266 14.471-.363-8.979-.196-17.674 1.671-25.458 5.935-1.209 11.963-.689 18.26 1.458 9.353 3.188 6.594 5.558.335 9.529Z" fill="#111827"/><path fill-rule="evenodd" clip-rule="evenodd" d="M207.026 386.573c8.512 14.904 25.231 22.411 41.828 22.617 16.597-.206 33.315-7.713 41.828-22.617-16.115 2.564-29.09 3.872-41.828 3.917-12.738-.045-25.711-1.353-41.828-3.917ZM357.438 196.937c-.937 20.432-8.75 53.008-23.186 67.851 8.33-3.35 19.335-9.208 25.306-15.826 3.925-13.732 3.489-40.081-2.12-52.025Z" fill="#374151"/><path fill-rule="evenodd" clip-rule="evenodd" d="M150.603 321.787c-2.784 6.892-4.821 15.216-6.319 23.029 8.669 2.909 16.086 4.901 25.061 6.961-8.308-13.246-9.049-27.59 1.081-40.015-7.146 2.837-13.736 5.758-19.823 10.025ZM145.496 196.937c.936 20.432 8.75 53.008 23.188 67.851-8.33-3.35-19.335-9.208-25.306-15.826-3.925-13.732-3.488-40.081 2.118-52.025Z" fill="#9CA3AF"/><path fill-rule="evenodd" clip-rule="evenodd" d="M391.838 186.557c20.31-12.561 49.211-6.866 58.127 6.1 17.746 25.801 7.628 86.952-46.015 87.789-21.45-26.527-31.92-50.86-12.112-93.889Z" fill="#6B7280"/><path fill-rule="evenodd" clip-rule="evenodd" d="M426.542 205.636c-12.381 0-22.931 12.453-26.877 27.171-7.46 27.795 32.421 37.429 35.208 2.702 2.436 2.987 4.311 6.688 4.762 10.938 10.332-13.845 8.748-40.811-13.093-40.811Z" fill="#374151"/><path fill-rule="evenodd" clip-rule="evenodd" d="M445.794 204.329c-20.703-1.076-30.467 10.354-36.718 29.143-5.916-10.527-3.961-26.237 5.263-32.743 6.733-4.75 22.162-6.504 31.455 3.6Z" fill="#111827"/><path fill-rule="evenodd" clip-rule="evenodd" d="M107.612 186.557c-20.313-12.561-49.21-6.866-58.127 6.1-17.745 25.801-7.627 86.952 46.016 87.789 21.447-26.527 31.921-50.86 12.111-93.889Z" fill="#6B7280"/><path fill-rule="evenodd" clip-rule="evenodd" d="M74.65 205.636c12.378 0 22.93 12.453 26.879 27.171 7.456 27.795-32.423 37.429-35.212 2.702-2.435 2.987-4.308 6.688-4.757 10.938-10.333-13.845-8.75-40.811 13.09-40.811Z" fill="#374151"/><path fill-rule="evenodd" clip-rule="evenodd" d="M55.4 204.329c20.704-1.076 30.465 10.354 36.719 29.143 5.913-10.527 3.96-26.237-5.265-32.743-6.733-4.75-22.162-6.504-31.454 3.6Z" fill="#111827"/><path d="m218.201 225.517-44.346-9.397c1.311 7.21 4.906 12.671 9.601 16.203a24.589 24.589 0 0 0 10.312 4.528c3.685.679 7.5.513 11.094-.553 5.194-1.543 9.983-5.072 13.339-10.781Zm-51.379-28.366 73.318 15.536-2.237 8.682c-4.48 17.391-15.647 27.573-28.357 31.346-6.102 1.811-12.546 2.099-18.747.954a41.444 41.444 0 0 1-17.372-7.607c-11.003-8.283-18.41-22.387-16.697-41.304l.867-9.561 9.225 1.954Z" fill="#1A1A1A"/><path fill-rule="evenodd" clip-rule="evenodd" d="m165.41 207.375 66.016 13.61c-11.108 41.957-70.2 31.319-66.016-13.61Z" fill="#fff"/><path fill-rule="evenodd" clip-rule="evenodd" d="M198.31 205.636c6.74 0 12.201 7.009 12.201 15.659 0 8.647-5.461 15.657-12.201 15.657-6.737 0-12.198-7.01-12.198-15.657 0-8.65 5.461-15.659 12.198-15.659Z" fill="#1A1A1A"/><path d="m267.979 210.847 73.877-15.65.864 9.561c1.714 18.917-5.693 33.021-16.696 41.304a41.452 41.452 0 0 1-17.37 7.607c-6.203 1.145-12.647.857-18.75-.954-12.709-3.773-23.876-13.955-28.354-31.346l-2.239-8.682 8.668-1.84Zm57.617 5.273-44.344 9.397c3.354 5.709 8.143 9.238 13.337 10.781 3.594 1.066 7.408 1.232 11.094.553a24.605 24.605 0 0 0 10.312-4.528c4.695-3.532 8.29-8.993 9.601-16.203Z" fill="#1A1A1A"/><path fill-rule="evenodd" clip-rule="evenodd" d="m335.784 207.375-66.016 13.61c11.107 41.957 70.199 31.319 66.016-13.61Z" fill="#fff"/><path fill-rule="evenodd" clip-rule="evenodd" d="M301.139 205.636c-6.739 0-12.2 7.009-12.2 15.659 0 8.647 5.461 15.657 12.2 15.657 6.739 0 12.2-7.01 12.2-15.657 0-8.65-5.461-15.659-12.2-15.659Z" fill="#1A1A1A"/></g><defs><clipPath id="a"><path fill="#fff" transform="translate(31 16)" d="M0 0h437.45v468H0z"/></clipPath></defs><script xmlns="" id="bw-fido2-page-script"/></svg>